<svg xmlns="http://www.w3.org/2000/svg" viewBox="0 0 1280 708"><defs><style>.cls-1{fill:#cdcccc;}.cls-1,.cls-2{stroke:#ccc;}.cls-1,.cls-2,.cls-3,.cls-4,.cls-5,.cls-6,.cls-7{stroke-miterlimit:10;}.cls-1,.cls-2,.cls-3{stroke-width:0.5px;}.cls-2,.cls-3,.cls-4,.cls-6{fill:none;}.cls-3{stroke:#bcbcbc;}.cls-4,.cls-5{stroke:#f7931a;}.cls-5{fill:#f39321;}.cls-6,.cls-7{stroke:#c4c4c4;}.cls-7{fill:#c4c4c4;}.cls-8{fill:#f6921a;}.cls-9{fill:#fff;}</style></defs><g id="Capa_2" data-name="Capa 2"><circle class="cls-1" cx="1040.14" cy="634.04" r="4.51"/><line class="cls-2" x1="680.94" y1="98.37" x2="841.07" y2="146.49"/><line class="cls-2" x1="663.93" y1="323.14" x2="841.07" y2="146.49"/><line class="cls-3" x1="663.93" y1="535.05" x2="663.93" y2="323.14"/><line class="cls-2" x1="802.86" y1="550.2" x2="663.93" y2="535.05"/><line class="cls-2" x1="864.64" y1="652.75" x2="663.93" y2="323.14"/><line class="cls-2" x1="799.35" y1="546.68" x2="1035.63" y2="634.04"/><line class="cls-2" x1="1044.65" y1="634.04" x2="1250.33" y2="494.53"/><line class="cls-2" x1="1200.18" y1="186.11" x2="1250.33" y2="494.53"/><line class="cls-2" x1="1003.51" y1="47.8" x2="1196.87" y2="181.57"/><line class="cls-2" x1="841.07" y1="146.49" x2="1003.51" y2="47.8"/><line class="cls-2" x1="663.93" y1="323.14" x2="1195.09" y2="188.5"/><line class="cls-2" x1="878.86" y1="356.46" x2="658.29" y2="323.14"/><line class="cls-2" x1="1037.96" y1="634.04" x2="975.63" y2="438.98"/><line class="cls-2" x1="841.07" y1="146.49" x2="899.09" y2="270.04"/><line class="cls-2" x1="1246.81" y1="494.53" x2="841.07" y2="146.49"/><line class="cls-2" x1="1204.16" y1="187.45" x2="1040.14" y2="634.04"/><line class="cls-2" x1="668.3" y1="326.66" x2="1037.96" y2="634.04"/><line class="cls-2" x1="1003.51" y1="47.8" x2="1250.33" y2="498.04"/><line class="cls-2" x1="802.86" y1="546.68" x2="1081.95" y2="497.22"/><line class="cls-2" x1="1090.99" y1="497.22" x2="1246.35" y2="497.22"/><line class="cls-2" x1="1001.32" y1="47.8" x2="963.05" y2="261.84"/><line class="cls-2" x1="802.86" y1="546.68" x2="892.53" y2="435.15"/><line class="cls-2" x1="1014.99" y1="420.39" x2="1087.59" y2="502.86"/><line class="cls-2" x1="495.78" y1="36.28" x2="280.61" y2="160.65"/><line class="cls-2" x1="308.46" y1="471.87" x2="280.61" y2="160.65"/><line class="cls-2" x1="494.68" y1="623.96" x2="311.43" y2="476.64"/><line class="cls-2" x1="853.18" y1="373.74" x2="313.71" y2="469.85"/><line class="cls-2" x1="284.12" y1="160.9" x2="663.8" y2="537.2"/><line class="cls-2" x1="304.59" y1="470.25" x2="500.28" y2="36.6"/><line class="cls-2" x1="280.86" y1="157.14" x2="494.68" y2="623.96"/><line class="cls-2" x1="663.93" y1="323.14" x2="284.77" y2="158.25"/><line class="cls-2" x1="663.93" y1="323.14" x2="498.2" y2="41.21"/><line class="cls-2" x1="671.06" y1="96.43" x2="498.2" y2="41.21"/><line class="cls-2" x1="494.68" y1="623.96" x2="659.79" y2="536.51"/><line class="cls-2" x1="228.03" y1="639.89" x2="304.59" y2="470.25"/><line class="cls-2" x1="132.06" y1="246.52" x2="308.46" y2="471.87"/></g><g id="Capa_3" data-name="Capa 3"><circle class="cls-4" cx="665.42" cy="324.48" r="22.76"/><circle class="cls-5" cx="665.42" cy="324.48" r="5.64"/><circle class="cls-4" cx="665.42" cy="536.39" r="22.76"/><circle class="cls-5" cx="665.42" cy="536.39" r="5.64"/><circle class="cls-4" cx="1089.08" cy="498.57" r="22.76"/><circle class="cls-5" cx="1089.08" cy="498.57" r="5.64"/><circle class="cls-4" cx="1201.68" cy="187.45" r="22.76"/><circle class="cls-5" cx="1201.68" cy="187.45" r="5.64"/><circle class="cls-6" cx="842.56" cy="147.83" r="14.2"/><circle class="cls-7" cx="842.56" cy="147.83" r="3.52"/><circle class="cls-6" cx="1154.89" cy="324.48" r="14.2"/><circle class="cls-7" cx="1154.89" cy="324.48" r="3.52"/><circle class="cls-6" cx="1251.82" cy="495.87" r="14.2"/><circle class="cls-7" cx="1251.82" cy="495.87" r="3.52"/><circle class="cls-6" cx="866.14" cy="654.09" r="14.2"/><circle class="cls-7" cx="866.14" cy="654.09" r="3.52"/><circle class="cls-6" cx="804.36" cy="548.03" r="14.2"/><circle class="cls-7" cx="804.36" cy="548.03" r="3.52"/><circle class="cls-7" cx="680.39" cy="96.43" r="4.51"/><circle class="cls-7" cx="228.03" cy="639.89" r="4.51"/><circle class="cls-7" cx="132.06" cy="246.52" r="4.51"/><circle class="cls-7" cx="1005" cy="49.14" r="4.51"/><circle class="cls-4" cx="307.07" cy="470.43" r="22.76"/><circle class="cls-5" cx="307.07" cy="470.43" r="5.64"/><circle class="cls-4" cx="498.2" cy="44.63" r="22.76"/><circle class="cls-5" cx="498.2" cy="44.63" r="5.64"/><circle class="cls-6" cx="363.58" cy="337.11" r="14.2"/><circle class="cls-7" cx="363.58" cy="337.11" r="3.52"/><circle class="cls-6" cx="279.22" cy="159.21" r="14.2"/><circle class="cls-7" cx="279.22" cy="159.21" r="3.52"/><circle class="cls-6" cx="494.68" cy="623.96" r="14.2"/><circle class="cls-7" cx="494.68" cy="623.96" r="3.52"/></g><g id="Capa_4" data-name="Capa 4"><circle class="cls-8" cx="949.34" cy="354.93" r="100.46"/><path class="cls-9" d="M995.88,340.79a23.17,23.17,0,0,0-1.7-15.61,21.47,21.47,0,0,0-9.94-10.39,57.65,57.65,0,0,0-7.64-2.9l3.06-16.4-11.21-2.09L965.54,309l-1.54-.36-6.26-1.38,2.86-15.3-11.21-2.09-2.78,14.92-24.25-5.37L919,314.81s10,1.08,11.21,2.48c3.15,3.77-9.77,59.74-13.38,60.4s-11.21-2.48-11.21-2.48l-3.41,15.41L930,396.77l-3,15.86,11.21,2.09,2.88-15.48,2.72.6c1.78.39,3.46.73,5.1,1l-2.85,15.3,11.21,2.09,3-15.85a49.71,49.71,0,0,0,6.63.08c5.7-.36,12.8-.66,17.73-4.25,4.53-3.31,7.48-9.45,8.81-15.48,2.32-10.49-4.49-19.52-14.52-26Q992.93,354.1,995.88,340.79Zm-24.1-12.63c2.18,1.42,6.87,4.7,5.52,10.26-1.6,6.63-4.94,7.45-8,8a36.51,36.51,0,0,1-13.21-.49c-1.84-.46-7.3-2.05-7.3-2.05l5.11-21.34s2.94.35,3.84.56C963.11,324.34,969.32,326.55,971.78,328.16Zm2,50.33c-2.15,9.54-12.24,8.24-15.11,8.18-3-.07-5.41-.51-11.49-1.86l-6.63-2.16L946.26,359l6.28,1.37a46.93,46.93,0,0,1,12.7,4.54C967.81,366.31,975.66,370.05,973.75,378.49Z"/></g></svg>